<svg xmlns="http://www.w3.org/2000/svg" viewBox="0 0 64 64" fill="none">
  <rect width="64" height="64" rx="16" fill="url(#bg)"/>
  <path d="M32 14c-8.5 0-14 6.2-14 14.5 0 4.8 2.1 8.8 5.5 11.2-.3 2.8-.8 5.5-1.8 8 3.8-1.2 7-3.4 9.5-6.2 1.5.4 3 .6 4.8.6 8.5 0 14-6.2 14-14.5S40.5 14 32 14z" fill="white" fill-opacity="0.95"/>
  <path d="M44 28c2.5 0 4.5 2 4.5 4.5s-2 4.5-4.5 4.5" stroke="white" stroke-width="2.5" stroke-linecap="round" stroke-opacity="0.7"/>
  <path d="M48 24c4 0 7 3.2 7 7s-3 7-7 7" stroke="white" stroke-width="2.5" stroke-linecap="round" stroke-opacity="0.45"/>
  <defs>
    <linearGradient id="bg" x1="8" y1="8" x2="56" y2="56" gradientUnits="userSpaceOnUse">
      <stop stop-color="#1A4D5C"/>
      <stop offset="1" stop-color="#3D8B7A"/>
    </linearGradient>
  </defs>
</svg>
